<?xml version="1.0" encoding="UTF-8"?>
<!DOCTYPE svg PUBLIC "-//W3C//DTD SVG 1.1//EN" "http://www.w3.org/Graphics/SVG/1.1/DTD/svg11.dtd">
<!-- Creator: CorelDRAW 2018 (64-Bit) -->
<svg xmlns="http://www.w3.org/2000/svg" xml:space="preserve" width="16.9332mm" height="11.8532mm" version="1.1" style="shape-rendering:geometricPrecision; text-rendering:geometricPrecision; image-rendering:optimizeQuality; fill-rule:evenodd; clip-rule:evenodd"
viewBox="0 0 1693.32 1185.32"
 xmlns:xlink="http://www.w3.org/1999/xlink">
 <defs>
  <style type="text/css">
   <![CDATA[
    .fil6 {fill:black}
    .fil7 {fill:#B13438}
    .fil5 {fill:#B23539}
    .fil3 {fill:#CE7F81}
    .fil1 {fill:#E5BBBC}
    .fil0 {fill:#F2DEDE}
    .fil2 {fill:#FDFAFA}
    .fil4 {fill:#FEFCFC}
   ]]>
  </style>
 </defs>
 <g id="Слой_x0020_1">
  <metadata id="CorelCorpID_0Corel-Layer"/>
  <g id="_2521321324176">
   <g>
    <path class="fil0" d="M1444.94 849.63c0.95,0.85 -1.27,3.77 4.21,0.89 3.05,-1.59 2.15,-2.12 2.83,-3.74l-7.04 2.85z"/>
    <path class="fil0" d="M1179.33 832.85l3.51 -3.59c-4.21,1.35 -3.58,-1.96 -3.51,3.59z"/>
    <path class="fil0" d="M42.52 479.84l3.61 -2.51c-7.03,-0.18 -1.17,-0.58 -3.68,1.03l0.07 1.48z"/>
   </g>
   <g>
    <path class="fil1" d="M1194.43 859.64l-0.15 -4.27c-5.14,1.55 -1.98,1.72 -3.46,-0.81 -3.51,0.56 -0.36,-0.36 -1.98,2.29l0.14 3.74c3.72,-3.23 0.08,-0.93 3.85,-0.71l1.6 -0.24z"/>
    <path class="fil1" d="M1432.67 868.13c6.3,-0.92 2.17,0.46 2.78,0.7 0.51,0.19 -2.14,1.93 1.1,0.15 2.2,-1.21 0.63,-0.36 1.99,-2l-0.04 -2.4 -3.3 0.05c-3.32,1.59 -1.29,-0.89 -2.53,3.5z"/>
    <path class="fil1" d="M1171.69 850.31c4.81,-0.5 3.06,0.5 5.97,-2.48 -2.05,-2.08 2.16,-3.3 -3.25,-1.21 -2.89,1.11 -0.99,-0.34 -2.72,3.69z"/>
    <path class="fil1" d="M1251.57 872.67c0.23,-0.42 2.36,-0.54 -0.08,-2.74 -1.66,-1.5 -2.79,-0.51 -3.12,-0.46l-0.16 2.68 3.36 0.52z"/>
   </g>
   <g>
    <path class="fil2" d="M1678.32 714.1c3.45,0.81 3.85,1.2 6.55,2.62 -1.27,-5.43 -0.77,-6.06 -6.55,-6.55l0 3.93z"/>
    <path class="fil2" d="M1645.83 728.51l4.92 -1.49 -1.24 -2.68c-3.97,2.49 -1.87,-0.13 -3.68,4.17z"/>
   </g>
   <g>
    <path class="fil3" d="M1430.99 862.06c3.98,-3.65 1.29,-4.19 2.72,-6.69 0.11,-0.2 0.45,-0.51 0.58,-0.69 4.43,-6.02 1.09,-2.6 -1.2,-4.23 -5.38,3.74 -4.23,0.82 -7.45,6.41 3.04,1.91 4.05,-1.18 2.23,2.98 7.07,-1.24 0.74,-0.67 3.12,2.22z"/>
    <path class="fil3" d="M1578.78 775.67c-6.65,0.98 -2.79,0.65 -5.79,2.2 -0.37,0.19 -2.23,1.4 -2.46,1.54 -1.31,0.85 -3.19,1.35 -2.42,4.1 2.12,0.99 9.34,-2.64 9.36,-2.65 1.82,-2.13 0.43,-1.55 1.31,-5.19z"/>
    <path class="fil3" d="M1174.52 867.31c4.52,0 4.62,-1.64 6.95,-5 -3.11,1.02 -2.32,0.34 -4.29,1.79 -2.44,1.8 -1.26,1.02 -2.66,3.21z"/>
   </g>
   <g>
    <path class="fil4" d="M145.99 385.67c4.87,-0.78 1.26,-0.53 2.65,0.94 -7.28,2.56 -8.85,4.86 -10.4,8.54 -0.08,0.2 -0.22,0.58 -0.31,0.78 -0.11,0.23 -0.86,1.59 -1.37,2.51 8.1,-2.44 9.56,-4.36 13.9,-8.49l4.72 -2.89c1.65,2.19 0.38,-0.14 1.5,3.54l6.18 -7.79c-1.95,-4.73 0.18,0.46 -2,-3.04 -1.61,-2.62 -0.96,-1.19 -2,-3.56 -5.62,-1.65 -5.57,-5.48 -11.4,0.18 -1.17,1.15 -3.2,3.16 -3,5.05l0.59 1.07c1.24,2.86 2.28,-0.81 0.94,3.16z"/>
    <path class="fil4" d="M135.65 405.02l-0.14 1.37c9.44,-1.32 7.64,-4.48 14.38,-6.08l2.98 -0.53 -0.33 -2.62 -1.31 -2.48c-2.62,0.94 -7.75,1.46 -9.92,2.99 -1.82,1.28 -3.58,5.12 -5.66,7.35z"/>
   </g>
   <g>
    <path class="fil5" d="M468.57 986.18c3.97,-5.4 6.86,-12.33 10.26,-19.15 3.27,-6.59 6.81,-16.71 3.75,-24.82 -2.82,2.49 -8.18,14.62 -10.03,18.59 -4.53,9.72 -5.68,12.31 -3.98,25.38z"/>
    <path class="fil5" d="M1289.35 948.24c4.56,-2.06 12.22,-14.48 13.02,-19.35 -9.1,0.34 -11.59,-2.2 -15.74,5.28 -2.74,4.96 -1.34,9.51 2.72,14.07z"/>
    <path class="fil5" d="M909.12 988.23l-18.41 -0.2c-0.78,9.84 -0.78,9.88 8.3,9.95 10.62,0.09 10.78,0.97 10.11,-9.75z"/>
    <path class="fil5" d="M890.6 937.4c5.55,1.69 12.81,1.16 18.68,0.42l-0.28 -5.94c-0.66,-3.16 -2.52,-2.72 -5.93,-2.9 -14.59,-0.79 -12.87,0.74 -12.47,8.42z"/>
    <path class="fil5" d="M890.71 966.05l7.02 0.97 2.63 -0.17 6.72 -0.57c3.82,-8.99 0.02,-9.69 -8.03,-9.65 -9.05,0.04 -9.01,0.4 -8.34,9.42z"/>
    <path class="fil5" d="M601.59 996.99l0.68 -8.17 -12.87 0.36c-0.81,9.86 3.29,11.1 12.19,7.81z"/>
   </g>
   <g>
    <path class="fil6" d="M891.22 1068.38c5.14,2.16 9.15,2.01 14.8,1.63 1.94,-3.38 2.08,-5.89 4.09,-9.11 9.36,0.55 16.65,18.62 22.13,25.81 -0.26,0.19 -0.7,0.1 -0.83,0.48 -0.13,0.39 -0.66,0.38 -0.84,0.48 -0.2,0.08 -0.64,0.33 -0.88,0.43 -19,8.7 -16.77,17.61 -28.4,38.42 -4.05,7.25 -6.32,7.54 -14.54,10.11l1.47 11.72c10.55,-0.02 20,0.63 30.22,1 21.08,0.78 15.03,-49.03 38.81,-52 0.4,7.92 0.79,22.33 -0.25,29.93 -0.95,6.95 -1.52,5.3 -5.95,8.33 -3.05,2.1 -3.27,-2.41 -3.69,13.06l52.36 -0.27c-0.04,-1.66 0.06,-5.12 -0.19,-6.86 -2.42,-17.13 -12.18,13.38 -9.67,-44.21 23.65,2.87 17.65,52.59 38.76,52.02 7.32,-0.2 23.72,-0.43 30.11,-1.58l1.88 -11.35c-14.83,-3.32 -11.95,-4.54 -22.13,-24.95 -12.65,-25.35 -11.42,-15.78 -23.63,-24.76 6.4,-7.5 11.65,-24.98 22.11,-25.85 2.65,3.71 1.75,4.73 3.96,9.02l14.44 -0.56 0.18 -29.74c-23.58,-1.83 -27.84,1.86 -37.04,18.16 -8.96,15.87 -12.32,26.9 -28.72,27.59 -0.56,-27.92 -2.12,-30.27 9.1,-33.66l0.99 -12.1 -52.51 -0.01 0.67 11.85c7.29,2.68 8.5,2.08 9.2,11.64 0.51,6.96 0.28,15.24 0.12,22.28 -17.52,-0.65 -20.53,-13.1 -28.43,-26.74 -9.65,-16.7 -12.26,-21.11 -37.61,-18.99l-0.09 28.78z"/>
    <path class="fil6" d="M203.66 1148.26l55.58 0c-0.31,-21.84 -6.24,-6.9 -10.6,-18.37 -2.05,-5.38 -1.19,-47.41 -1.2,-56.28 -0.02,-9.86 -1.65,-20.08 7.96,-21.81 26.74,-4.8 21.84,10.88 21.84,36.22 0,9.6 0.08,19.24 -0.02,28.84 -0.21,19.15 -2.23,15.77 -10.17,19.62l-1.89 11.75 55.84 0.03 -0.83 -11.48c-4.85,-2.48 -6.7,-0.69 -9.18,-5.13 -3.21,-5.71 -2.11,-68.7 -1.03,-72.72 3.6,-13.45 10.62,3.66 11.04,-19.37l-117.36 0c0.72,23.65 9.22,5.46 11.45,21.38l0.11 64.6c-1.84,18.01 -10.57,-0.77 -11.54,22.72z"/>
    <path class="fil6" d="M591.42 1136.41c8.09,-15.93 10.55,-26.52 12.54,-47 0.89,-9.33 0.85,-18.93 1.74,-28.23 1.14,-11.78 11.87,-12.37 16.16,-7.25 3.59,4.31 2.09,47.23 2.1,56.36 0.03,31 -2.04,26.2 -32.54,26.12zm-12.57 -85.05c9.2,3.91 22.21,-4.42 9.71,54.56 -5.77,27.25 -9.26,27.59 -25.06,31.16 -4.18,9.55 -1.29,27.17 -0.91,38.72 8.96,1.51 11.05,1.39 19.89,-0.16l1.75 -26.78c7.45,-1.29 64.88,-1.4 70.8,0.24l2.16 26.6c8.73,1.47 10.77,1.61 19.69,0 0.35,-8.62 1.75,-20.97 1.55,-28.77 -0.7,-27.27 -22.5,10.04 -22.5,-30.09l0 -44.53c0,-32.58 11.5,-7.33 11.79,-32.75l-90.43 0 1.56 11.8z"/>
    <path class="fil6" d="M468.31 1136.41c14.67,-28.87 11.47,-46 14.28,-75.23 1.14,-11.78 11.88,-12.37 16.16,-7.25 3.6,4.31 2.09,47.23 2.1,56.36 0.03,31 -2.04,26.2 -32.54,26.12zm-12.57 -85.05c9.19,3.91 22.21,-4.42 9.71,54.56 -1.5,7.1 -3.24,14.63 -6.62,20.78 -4.92,8.94 -7.45,7.9 -18.44,10.38 -4.18,9.55 -1.29,27.17 -0.91,38.72 8.96,1.51 11.05,1.39 19.89,-0.16l1.74 -26.78c7.46,-1.29 64.89,-1.4 70.82,0.24l2.16 26.6c8.71,1.47 10.76,1.61 19.68,0 0.34,-8.62 1.75,-20.97 1.55,-28.77 -0.7,-27.27 -22.5,10.04 -22.5,-30.09l0 -44.53c0,-32.58 11.49,-7.33 11.8,-32.75l-90.44 0 1.56 11.8z"/>
    <path class="fil6" d="M374.38 1052.33c18.69,-9.01 28.45,16.82 30.32,32.52 2.06,17.25 -1.3,45.27 -13.05,50.64 -33.93,15.49 -41.97,-71.24 -17.27,-83.16zm-4.36 -12.15c-67.26,12.99 -52.66,123.19 25.84,107.49 28.01,-5.6 46.99,-32.08 41.39,-66.31 -4.84,-29.52 -32.06,-47.97 -67.23,-41.18z"/>
    <path class="fil6" d="M785.95 1137.79l-0.95 10.54 62.74 0 -0.95 -11.36c-8.63,-1.96 -13.55,-1.11 -16.38,-8.75 -1.55,-4.21 -2.68,-61.07 -1.52,-70.37 0.73,-5.91 -0.68,-2.3 1.88,-4.99 4.91,-4.3 22.68,-1.73 22.03,26.02 -0.19,8.16 -1.91,15.59 -7.12,19.53 -7.95,6.01 -13.09,-2.93 -11.36,14.17 41.01,10.97 60.28,-30.35 47.94,-55.83 -6.33,-13.08 -21.31,-16.86 -39.09,-17.18 -19.22,-0.35 -38.77,-0.01 -58.03,-0.01 0.7,23.45 7.75,6.16 11.07,19.31 1.05,4.14 2,67.17 -0.91,72.95 -3.02,5.96 -4.19,2.16 -9.35,5.97z"/>
    <path class="fil6" d="M686.31 1051.24l9.19 3.45c2.53,10.29 2.69,54.38 1.78,68.61 -0.84,13.1 -2.75,9.21 -10.68,13.51l-1.17 11.51 91.26 0.01 4.53 -28.85c-4.35,-1.88 -9.1,-4.21 -15.34,-4.29 -7.19,12.01 -5.42,23.07 -26.12,21.13 -13.44,-1.25 -10.72,-18.25 -10.26,-36.23 13.52,-0.18 9.58,2.65 14.12,11.2l12.89 1.78 -0.34 -37.98 -12.6 1.08c-4.77,8.17 -0.58,11.78 -14.1,11.59l-0.05 -36.16c20.92,-1.16 24.64,1.66 30.2,19.01l15.39 -2.26 -3.23 -28.42 -86.19 -0.39 0.72 11.7z"/>
    <g>
     <path class="fil6" d="M1336.78 1099.29c31.4,-5.15 25.59,26.99 20.04,33.12 -5.09,5.61 -16.77,6.39 -19.64,-3.48 -1.54,-5.32 -1.46,-24.13 -0.4,-29.64zm-43.35 37.57l-1.17 11.51c28.14,0.01 85.94,4.81 99.31,-13.97 10.04,-14.09 4.83,-33.71 -6.08,-40.77 -13.73,-8.89 -31.46,-7.91 -49.25,-7.84 0,-7.09 -0.7,-18.9 1.27,-25.07 2.62,-8.18 7.35,-7.71 16.31,-9.84l1.41 -11.25 -62.8 -0.02c0.7,22.8 7.67,6.5 11.09,19.3 1.1,4.11 1.77,66.09 -0.7,71.89 -2.4,5.67 -4.02,3.14 -9.39,6.06z"/>
     <path class="fil6" d="M1192.86 1071.87c4.1,-12.7 5.69,-19.43 20.57,-20.35l0.15 64.05c0,18.69 -0.99,18.41 -17.18,21.35l-1.98 11.42 68.43 0.04 -1.22 -11.89c-15.04,-0.76 -16.14,-4.87 -16.14,-19.61l0.07 -65.42c16.13,0.24 17.71,6.33 21.32,20.64l15.67 -1.81 -3.41 -30.41 -98.75 -0.27c-0.86,27.88 -7.74,29.05 -0.08,31.44 3.29,1.03 9.12,1 12.55,0.82z"/>
     <path class="fil6" d="M1117.32 1077.25c2.56,3.55 12.29,28.53 14.42,34.36l-26.77 0.02 12.35 -34.38zm-44.11 71.04l33.97 0.24c-0.14,-6.17 0.93,-8.96 -3.52,-12.76 -3.12,-2.66 -9.09,-9.99 -0.45,-12.12 5.96,-1.47 28.02,-1.58 33.56,-1.28 6.31,15.98 -1.89,8.43 -4.66,16.99 -0.67,2.05 -0.61,7.06 -0.66,9.33l53.14 -0.22c-0.33,-20.6 -1.89,-2.35 -13.32,-26.47 -4.39,-9.26 -35.09,-81.38 -39.48,-82.39l-9.9 0.45c-8.1,14.33 -17.03,39.1 -23.66,55.06 -4.29,10.31 -11.71,32.45 -19.83,39.1 -5.82,4.77 -4.82,5.28 -5.19,14.07z"/>
    </g>
   </g>
   <g>
    <path class="fil7" d="M1265.59 864.87c-6.3,5.69 -4.41,1.26 -5.28,0.32l5.28 -0.32zm186.39 -18.09c-0.68,1.62 0.22,2.15 -2.83,3.74 -5.48,2.88 -3.26,-0.04 -4.21,-0.89l7.04 -2.85zm-1343.94 -10.96c5.56,6.68 1.71,4.77 1.28,5.59 -1.5,-1.88 -1.62,-1.84 -1.28,-5.59zm1071.29 -2.97c-0.07,-5.55 -0.7,-2.24 3.51,-3.59l-3.51 3.59zm399.45 -57.18c-0.88,3.64 0.51,3.06 -1.31,5.19 -0.02,0.01 -7.24,3.64 -9.36,2.65 -0.77,-2.75 1.11,-3.25 2.42,-4.1 0.23,-0.14 2.09,-1.35 2.46,-1.54 3,-1.55 -0.86,-1.22 5.79,-2.2zm0.01 -0.01l-0.01 0.01 0.01 -0.01zm23.57 -31.43l0.39 0.39c-0.03,-0.02 -0.52,-0.27 -0.39,-0.39zm-404.54 -7.88c1.33,-2.99 -3.6,-0.66 2.72,-2.32l-2.72 2.32zm435.97 2.64c0.7,1.21 2.82,-2.02 0.1,2.85 -1.28,2.31 -1.56,1.63 -4.42,3.25 -0.26,0.15 -0.6,0.32 -0.86,0.47 -20.46,11.52 -4.41,2.27 -18.24,7.98 -0.08,0.04 -4.06,2.1 -4.3,2.25l-12.29 8.67c-0.31,0.23 -1.15,0.92 -1.45,1.17 -5.26,4.36 -6.38,8.36 -13.54,10.03 2.14,-2.93 6.28,-4.84 9.48,-8.86l0.92 -1.31c4.6,-7 8.02,-8.43 12.6,-13.96 4.02,-4.85 13.57,-16.09 18.76,-19.23l9.31 -3.79c-1.57,6.76 -3.39,4 -3.93,10.48 6.04,-0.51 3.57,-1.06 7.86,-3.93l0 3.93zm-417.12 -8.25l4.85 -2.83 -4.85 2.83zm414.5 -3.54l-1.31 1.31 1.31 -1.31zm0 0l0 0zm-421.23 -26.19c-7.12,4.53 -5.66,0.36 -6.39,-0.13 0.83,-0.74 3.83,-1.24 6.39,0.13zm435.64 -34.06l0 0zm-5.24 -32.73l0.39 0.39c-0.02,-0.04 -0.52,-0.27 -0.39,-0.39zm-6.55 -24.89l0 0zm-1595.19 -20.95l-1.31 1.31 1.31 -1.31zm1575.55 -1.31l-2.56 1.5 2.56 -1.5zm-1575.55 1.31l0 0zm-13.11 -11.79l0 0zm9.17 -3.93l-1.3 1.3 1.3 -1.3zm0 0l0 0zm-15.71 -1.32l0 0zm-2.62 -7.85c-0.8,4.28 1.67,1.83 -2.62,2.62l2.62 -2.62zm1593.89 0l0 0zm-1578.18 -3.93l0.4 0.39c-0.03,-0.02 -0.52,-0.26 -0.4,-0.39zm-15.71 3.93c1.21,-5.19 1.09,-6.96 5.23,-5.24 -0.58,0.88 -0.94,1.9 -2.14,3.09 -2.04,2.02 -0.08,1.06 -3.09,2.15zm1589.95 -11.79l0.4 0.39c-0.03,-0.02 -0.52,-0.26 -0.4,-0.39zm-1584.72 6.55c0.46,-5.43 0.08,-2.88 3.01,-6.17 2.88,-3.25 1.97,-3.18 6.16,-4.31 -1.28,4.84 -5.49,8.02 -9.17,10.48zm1599.14 -10.48l0 0zm-1589.97 0l0 0zm-3.93 -17.02l0 0zm0 -6.55l2.36 -2.88c-0.63,3.66 0.75,1.72 -2.36,2.88zm-1.31 15.72l2.49 -5.38c3.6,-9.32 3.32,-11.1 9.31,-14.27 -1.04,3.88 -0.54,2.12 -2.63,5.24 6.28,-1.5 2.04,-0.89 3.94,0 -1.15,2.16 0.35,-0.15 -1.5,2.43 -0.14,0.19 -0.41,0.54 -0.56,0.75 -3.23,4.33 2.06,-2.75 -1.17,1.45 -4.9,6.36 -7.6,16.63 -9.88,9.78zm11.8 -19.65l0 0zm1521.85 -7.86l0 0zm-6.54 0l0 0zm-419.96 -1.8c-1.42,-8.86 -0.34,-47.83 -0.57,-62.49 -0.17,-11.89 0.18,-8.98 11.9,-8.98 57.55,0 128.04,2.9 156.91,57.95 23.55,44.92 14.37,134.16 -37.21,165.12 -36.95,22.19 -79.27,22.59 -131.42,21.88l0.15 -70.6c39.69,-2.03 71.92,6.59 79.32,-37.29 2.99,-17.72 -0.43,-38.29 -8.29,-49.89 -13.47,-19.84 -41.94,-15.31 -70.79,-15.7zm-1097.98 -8.68l0 0zm0 -17.02c2.3,-3.43 0.67,-2.7 5.25,-3.93 -2.3,3.43 -0.67,2.71 -5.25,3.93zm1523.17 -5.24l0.39 0.39c-0.03,-0.02 -0.52,-0.26 -0.39,-0.39zm-1516.61 0l-1.31 1.31 1.31 -1.31zm1508.75 -1.31c0.33,-2.69 6.92,0.32 1.23,0.13 -0.51,-0.03 -1.59,2.8 -1.23,-0.13zm-1507.52 0c2.51,-1.61 -3.35,-1.21 3.68,-1.03l-3.61 2.51 -1.3 -0.17 1.23 -1.31zm7.93 -6.55l0.39 0.39c-0.02,-0.03 -0.52,-0.26 -0.39,-0.39zm36.67 -27.5l0 0zm1.32 -1.31l-1.32 1.31 1.32 -1.31zm0 0c1.95,-2.82 0.18,-1.72 3.92,-2.62 -2.02,2.89 -0.21,1.63 -3.92,2.62zm-9.18 -3.93l0.4 0.39c-0.03,-0.02 -0.52,-0.26 -0.4,-0.39zm9.18 -5.24l0 0zm1.3 -1.31l-1.3 1.31 1.3 -1.31zm0 0c1.96,-2.82 0.19,-1.72 3.93,-2.62 -1.96,2.82 -0.19,1.73 -3.93,2.62zm-5.23 -1.31l0 0zm9.16 -1.31l0 0zm-1.31 -2.62l-2.55 1.51 2.55 -1.51zm1.31 -1.31l-1.31 1.31 1.31 -1.31zm0 0l2.55 -1.5 -2.55 1.5zm2.62 -17.02l0 0zm1448.51 -3.93l0 0zm1.31 -1.31l-1.31 1.31 1.31 -1.31zm-1413.15 -3.93l0.39 0.39c-0.03,-0.03 -0.52,-0.26 -0.39,-0.39zm22.27 -1.31l-2.29 1.31 -2.98 0.53c-6.74,1.6 -4.94,4.76 -14.38,6.08 -1.84,-1.2 -1.79,-0.31 0.14,-1.37 2.08,-2.23 3.84,-6.07 5.66,-7.35 2.17,-1.53 7.3,-2.05 9.92,-2.99l2.62 -0.14 -1.31 2.62 2.62 1.31zm-1.31 -3.93l0.29 -1.31c2.18,-4.21 0.53,-1.29 2.54,-2.63 0.3,5.23 0.51,1.76 -1.52,3l-1.31 0.94zm11.79 0.51c-1.32,4.1 -0.41,2.44 -2.8,3.86 -0.43,5.17 -0.33,3.68 -6.37,8.4 -0.11,-0.13 -0.24,-0.38 -0.26,-0.43l-2.46 -4.43c4.77,1.09 3.12,0.44 6.88,-1.71 -5.34,-3.05 -0.41,-3.03 -4.16,-2.5l-1.31 0.23 0.03 -1.31c2.79,-2.28 -0.02,-1.51 4.87,-1.7 1.93,-2.41 6.77,-6.21 8.9,-7.09 -1.73,3.29 -1.96,2.97 -3.32,6.68zm3.92 -25.39l0 0zm0 0l0 0zm1216.7 -7.86c-0.77,9.36 -2.38,0.83 -17.03,7.86 1.04,-3.88 1.68,-4.54 11.18,-7.16 2.96,-0.82 2.43,-0.7 5.85,-0.7zm1.31 1.31c0.13,-0.13 0.39,0.2 0.39,0.39l-0.39 -0.39zm3.93 -2.62c0.13,-0.13 0.39,0.2 0.39,0.39l-0.39 -0.39zm-5.24 1.31l0 0zm-17.03 -5.24c1.14,-4.88 3.18,-6.61 7.86,-7.86 -0.23,0.34 -2.9,4.87 -2.94,4.92 -2.78,3.57 0.77,2.32 -4.92,2.94zm44.53 -3.93l0 1.31 -1.3 0c-15.06,17.32 -25.2,7.31 -8.22,0.96 12.06,-4.52 10.68,-6.95 18.69,-8.82 -3.23,4.43 0.37,0.7 -4.34,3.52l-4.83 3.03zm10.48 -7.86l0.39 0.39c-0.02,-0.02 -0.52,-0.26 -0.39,-0.39zm-26.19 -11.79l0 0zm1.31 -1.3l-1.31 1.3 1.31 -1.3zm138.82 -9.17l0 0zm-1328.02 -6.55l0 0zm0 0l0 0zm1329.33 -6.55l-2.55 1.51 2.55 -1.51zm0 0l0 0zm0 -13.1l0 0zm9.17 -1.31l0 0zm-155.85 -13.09l0 0zm-1046.44 0l0 0zm0 0l2.55 -1.51 -2.55 1.51zm1187.88 -2.62l0 0zm-1172.16 -6.55l-2.56 1.5 2.56 -1.5zm1035.96 -11.79l0 0zm-652.22 -7.85l-2.56 1.5 2.56 -1.5zm1.31 -1.31l-1.31 1.31 1.31 -1.31zm-407.32 0l0 0zm175.5 -10.49c2.3,-3.43 0.66,-2.7 5.23,-3.92 -2.44,3.64 -0.55,2.54 -5.23,3.92zm-36.67 -5.23l0.39 0.39c-0.02,-0.03 -0.52,-0.26 -0.39,-0.39zm324.8 -1.31l0 0zm-337.9 0l0.39 0.39c-0.03,-0.03 -0.52,-0.26 -0.39,-0.39zm339.21 -1.31l-1.31 1.31 1.31 -1.31zm-320.87 0l0 0zm1.31 -1.31l-1.31 1.31 1.31 -1.31zm-15.72 0l0.39 0.39c-0.03,-0.03 -0.52,-0.26 -0.39,-0.39zm335.28 1.31c0.79,-4.29 -1.67,-1.83 2.62,-2.62l-2.62 2.62zm-316.94 -2.62l-2.62 1.31 2.62 -1.31zm0 0c1.95,-2.82 0.19,-1.72 3.93,-2.62 -2.02,2.9 -0.22,1.63 -3.93,2.62zm311.7 -5.24l0 0zm419.1 -2.62c-1.22,4.58 -0.5,2.94 -3.93,5.24 1.22,-4.58 0.5,-2.94 3.93,-5.24zm-419.1 2.62l0 0zm-314.32 -2.62l0 0zm736.04 -1.31l0 0zm-736.04 1.31l0 0zm-6.55 -1.31l-31.44 22.26c-6.09,4.24 -13.63,11.5 -19.64,13.11l10.58 -11.7c0.19,-0.19 0.46,-0.46 0.65,-0.65l2.12 -1.81c4.91,-3.95 10.05,-9.64 15.46,-12.05 7.9,-3.51 4.55,-4.43 13.7,-8.65 6.42,-2.96 1.09,-1.13 8.57,-0.51zm739.97 1.31c0.79,-4.29 -1.67,-1.82 2.62,-2.62l0 1.31 -2.62 1.31zm-729.49 -2.62l0 0zm-10.48 1.31l2.55 -1.5 -2.55 1.5zm11.79 -2.62l-1.31 1.31 1.31 -1.31zm730.8 1.31c0.79,-4.28 -1.67,-1.82 2.62,-2.62l-2.62 2.62zm-365.4 -3.93l0 0zm-113.94 0l0 0zm481.96 1.31c1.96,-2.82 0.19,-1.72 3.93,-2.62 -1.96,2.82 -0.19,1.73 -3.93,2.62zm-366.71 -2.62l-1.31 1.31 1.31 -1.31zm370.64 0l0 0zm-369.33 -1.3l-1.31 1.3 1.31 -1.3zm-368.02 5.23c2.54,-3.79 2.7,-4.03 7.85,-5.23 -2.54,3.79 -2.7,4.03 -7.85,5.23zm10.47 -6.54l-2.62 1.31 2.62 -1.31zm341.83 -1.31l0 0zm-340.52 0l-1.31 1.31 1.31 -1.31zm341.83 -1.31l-1.31 1.31 1.31 -1.31zm-339.21 0l-2.62 1.31 2.62 -1.31zm341.83 -2.62c-0.79,4.28 1.66,1.82 -2.62,2.62 0.79,-4.29 -1.66,-1.83 2.62,-2.62zm-104.77 1.31l0 0zm116.56 5.24c9.34,-13.95 13.3,-3.56 0,0zm-115.26 -6.55l-1.3 1.31 1.3 -1.31zm-238.36 2.62c1.96,-2.83 0.2,-1.73 3.93,-2.62 -2.01,2.89 -0.21,1.63 -3.93,2.62zm344.45 -5.24c-0.79,4.29 1.66,1.82 -2.62,2.62 0.79,-4.29 -1.66,-1.83 2.62,-2.62zm-103.46 1.31l-2.63 1.31 2.63 -1.31zm-235.75 0l0.4 0.39c-0.04,-0.03 -0.53,-0.26 -0.4,-0.39zm341.83 -3.93c-0.79,4.29 1.67,1.82 -2.62,2.62 0.79,-4.29 -1.67,-1.83 2.62,-2.62zm-27.51 1.31l0 0zm1.31 -1.31l-1.31 1.31 1.31 -1.31zm26.2 0c0.84,-3.2 -0.58,-1.77 2.62,-2.62 -0.9,3.4 0.48,1.46 -2.62,2.62zm-24.89 -1.31l-1.31 1.31 1.31 -1.31zm1.31 -1.31l-1.31 1.31 1.31 -1.31zm1.31 -1.31l-1.31 1.31 1.31 -1.31zm28.82 -1.31c-2.94,4.06 -1,4.06 -3.93,0l3.93 0zm-27.51 0l-1.31 1.31 1.31 -1.31zm540.9 -1.31c0.14,-0.13 0.39,0.2 0.39,0.39l-0.39 -0.39zm-192.52 -5.24c1.52,-1.52 7.46,2.22 1.63,0.53 -0.15,-0.04 -3.9,1.74 -1.63,-0.53zm-5.24 -2.62c0,-3.35 2.08,-0.21 0.78,0 -0.02,0.01 -0.78,3.66 -0.78,0zm5.24 0c-1.31,0.56 -5.43,-0.03 -0.82,-1.83 3.46,-1.34 1.88,1.38 0.82,1.83zm-7.86 -3.93c0.08,-0.57 5.95,-2.35 1.75,0.09 -2.29,1.33 -1.99,1.9 -1.75,-0.09zm-313.01 13.1c-1.06,-2.72 -2.42,-0.26 4.69,-7.06 3.06,-2.92 5.21,-5.21 8.4,-7.35 -0.89,3.34 -2.63,5.78 -4.88,8.21 -1.19,1.29 -2.01,2.04 -3.39,3.15l-4.82 3.05zm316.94 -14.41c0,-3.34 2.08,-0.21 0.78,0 -0.02,0.01 -0.78,3.66 -0.78,0zm2.62 -1.31l0.39 0.39c-0.03,-0.02 -0.52,-0.26 -0.39,-0.39zm2.62 -1.31l0.39 0.39c-0.02,-0.02 -0.52,-0.26 -0.39,-0.39zm-555.3 -1.31l0 0zm0 0c1.95,-2.81 0.18,-1.72 3.93,-2.62 -2.02,2.89 -0.22,1.63 -3.93,2.62zm9.16 -6.55l0.39 0.39c-0.03,-0.02 -0.52,-0.25 -0.39,-0.39zm-1.31 -1.31c-1.96,2.83 -0.19,1.73 -3.92,2.62 2.01,-2.89 0.21,-1.63 3.92,-2.62zm277.66 -1.31l0 0zm-10.49 0l0.4 0.39c-0.03,-0.02 -0.52,-0.25 -0.4,-0.39zm463.64 -1.31l0 0zm-453.15 1.31l0 0zm-280.28 -2.61l0 0zm1.31 -1.31l-1.31 1.31 1.31 -1.31zm11.79 -1.31l0.39 0.39c-0.02,-0.03 -0.52,-0.26 -0.39,-0.39zm-10.48 6.54c2.22,-3.31 2.1,-5.36 6.55,-6.54 -2.8,4.18 -2.15,0.92 -2.62,6.54l-3.93 0zm13.1 -7.85l0.39 0.39c-0.02,-0.03 -0.52,-0.26 -0.39,-0.39zm-6.55 1.31l0 0zm-7.86 1.31l1.31 -2.62 5.2 -2.69c-1.03,3.02 0.17,1.27 -2.07,3.19 -2.72,2.34 -1.22,1.26 -4.44,2.12zm1.31 -2.62l0 0zm275.04 -2.62l-2.56 1.5 2.56 -1.5zm1.31 -1.31l-1.31 1.31 1.31 -1.31zm1.31 -1.31l-1.31 1.31 1.31 -1.31zm-347.07 0l0.39 0.39c-0.03,-0.02 -0.52,-0.26 -0.39,-0.39zm347.07 0l0 0zm-297.31 1.31c2.97,-4.42 2.23,-2.65 6.42,-5.38 4.74,-3.09 2.24,-3.63 9.31,-3.79 -1.87,6.97 -8.62,7.52 -15.73,9.17zm30.13 -11.79c-1.72,4.75 -17.9,15.41 -22.27,18.34 1.58,-6.76 4.45,-6.76 8.84,-10.82 4.09,-3.78 6.07,-7.35 13.43,-7.52zm0 0l0 0zm-41.91 -1.31l0 0zm45.84 -1.31l0 0zm-44.53 0l-1.31 1.31 1.31 -1.31zm44.53 0l0 0zm65.48 -2.62c1.4,-1.39 4.97,2.08 1.46,0.68 -0.03,-0.01 -3.65,1.52 -1.46,-0.68zm434.82 -3.92l-0.72 2.81 0.72 -2.81zm-238.36 -1.32l-1.31 1.32 1.31 -1.32zm0 0l0 0zm237.05 -11.79c0,-3.35 2.07,-0.21 0.78,0 -0.02,0.01 -0.78,3.66 -0.78,0zm-3.93 -1.31c2.03,-2.76 3.71,-3.33 6.55,-5.23l0 3.92c-2.49,0.22 -4.59,0.55 -6.55,1.31zm-206.93 -10.47l0.39 0.39c-0.03,-0.03 -0.52,-0.26 -0.39,-0.39zm5.24 -18.33c1.95,-2.83 0.19,-1.74 3.92,-2.62 -1.95,2.81 -0.18,1.72 -3.92,2.62zm5.23 -3.93l-1.31 1.31 1.31 -1.31zm1.31 -1.31l-1.31 1.31 1.31 -1.31zm2.62 -1.31l-2.62 1.31 2.62 -1.31zm1.31 -1.31l-1.31 1.31 1.31 -1.31zm0 0l2.36 -2.89c-0.64,3.67 0.75,1.73 -2.36,2.89zm3.93 -3.93l0.4 0.39c-0.03,-0.03 -0.52,-0.27 -0.4,-0.39zm191.22 -9.17l0 0zm-185.97 -9.17l0.39 0.39c-0.04,-0.02 -0.53,-0.26 -0.39,-0.39zm48.46 -10.48l0.38 0.39c-0.03,-0.02 -0.52,-0.25 -0.38,-0.39zm18.33 -2.62l0 0zm-13.1 0l0 0zm13.1 0l0 0zm-11.79 -1.31l-1.31 1.31 1.31 -1.31zm15.72 -1.3l0 0zm-13.1 0l-2.62 1.3 0 -1.3 2.62 0zm44.53 1.3c2.8,-3.81 0.84,-1.59 5.23,-3.92 -1.33,5.02 -0.1,3.39 -5.23,3.92zm-47.15 -1.3l0 0zm53.7 -6.55c-0.85,3.19 0.58,1.77 -2.62,2.62l2.62 -2.62zm0 0l0 0zm-14.41 2.62c2.3,-3.43 0.66,-2.71 5.24,-3.93 -2.44,3.64 -0.57,2.54 -5.24,3.93zm-23.57 3.93c1.04,-2.27 0.05,-0.61 0.5,-2.62 0.65,-2.88 -0.83,-0.37 0.91,-2.9 1.04,-1.52 4.04,-3.01 6.44,-3.65l-1.28 7.28c0.01,0.12 0.08,0.46 0.08,0.58 0.2,2.97 0.37,3.78 -1.45,6.36 -3.19,4.5 -10.63,6.68 -15.68,9.35 1.71,-4.72 3.44,-4.51 9.22,-9.11 0.21,-0.17 0.52,-0.4 0.73,-0.58 0.3,-0.24 1.16,-0.93 1.43,-1.19 3.28,-3.22 1.97,-0.9 3.03,-4.83 -1.77,0.99 -1.45,0.71 -3.93,1.31zm10.47 -10.48l-2.62 1.31 2.62 -1.31zm11.79 -7.87c-1.79,3.39 -1.12,3.5 -4.41,6.19 -0.4,0.33 -2.94,1.8 -3.01,1.81 -3.01,0.93 0.25,0.84 -4.37,-0.13 3.64,-4.97 5.19,-1.9 9.17,-7.87 -4.02,0.95 -5.02,2.07 -7.87,3.93 -3.04,2.01 -4.76,2.72 -8.52,4.58 -6.72,3.31 -10.19,6.58 -16.35,9.84 0.9,-8.24 10.77,-6.7 18.33,-17.03 -7.17,0.59 -14.38,9.14 -20.74,11.99 -4.39,1.96 -6.58,1.29 -11.62,4.11 -5.45,3.04 -4.45,4.67 -10.86,6.16l21.82 -20.19c2.76,-5.09 1.08,-2.04 0.45,-3.39 -2.94,-1.03 -5.65,4.52 -14.41,6.56l4.15 -5.04c-5.26,0.8 -9.75,4.27 -12.51,7.16 -6.5,6.8 -6.08,3.87 -12.35,7.29 -3.42,1.87 -5.19,4.23 -8.1,6.31 -2.9,2.07 -4.56,3.1 -7.58,5.52 -15.12,12.12 1.56,5.08 -10.67,12.84 -3.28,2.08 -5.74,3.22 -7.95,6.51 5.58,-1.29 5.77,-3.32 9.17,1.31l-4.78 3.08c-4.67,3.81 -10.69,8.37 -13.55,12.65l3.93 0c-2.51,5.43 1.27,4.06 -2.58,9.09l-2.58 2.75c-5.31,5.26 -6.92,3.88 -11.87,9.11 0.79,-9.51 5.24,-6.34 5.24,-17.03 -8.94,4.74 -4.36,3.05 -9.17,1.31 -3.48,9.63 -10.22,6.69 -12.6,21.24l-3.12 6.26c6.09,0.51 2.29,-1.4 5.25,2.62 -1.65,3.12 -3.03,4.47 -3.93,7.87l2.62 0c-1.87,5.15 -0.2,0.14 -3.94,5.23l5.19 -1.47c-0.45,6.2 -1,3.73 -3.87,8.02 4.76,1.11 4.19,0.72 6.55,3.93 -5.92,1.37 -6.24,4.65 -10.76,7.58l-11.51 8.13c1.7,-7.28 4.32,-6.51 7.85,-11.78l0 -1.31c-0.28,-3.54 -0.6,-3.56 -1.31,-6.55l-5.23 0 0 5.24c-2.4,-2.53 -2.55,-3.3 -5.39,-0.4l-15.44 17.04c-1.65,5.64 6.48,-3.25 -1.61,6.57 -5.62,6.81 -0.4,4.03 -7.1,8.79l-18.64 14.11c-11.17,8.16 -20.84,17.46 -30.32,26 -0.21,0.18 -0.48,0.45 -0.68,0.63 -4.37,3.83 -0.2,1.61 -4.64,3.22 1.61,-6.03 18.81,-20.43 24.23,-25.53 2.39,-2.24 3.89,-3.9 5.89,-5.91l4.67 -4.49c4.08,-3.72 10.78,-12.32 14.98,-13.84l1.31 -1.31 1.46 -5.18c-11.13,5.59 -23.2,20.67 -28.97,22.21l0 -2.63c-5.03,1.35 -13.46,10.1 -17.61,13.82l-41.63 38.28c-9.87,9.44 -11.48,3.19 -16.58,3.39 -7.66,0.29 3.17,1.9 -7.99,2.15 0.6,-7.27 0.29,-0.07 6.54,-13.1 -5.48,1.27 -3.6,2.47 -10.48,2.61 1.64,-7.02 -1.21,-5.29 2.44,-6.92 0.12,-0.05 0.55,-0.08 0.68,-0.15 4.38,-1.9 1.45,4.05 3.44,-3.4 -5.18,0 -5.32,0.41 -9.17,1.31l2.17 -12.99c-0.24,-3.03 0.22,-1.01 -0.86,-2.73l4.5 -2.05c4.53,-1.94 -0.3,-0.55 4.66,-1.87 -1.2,-5.13 -1.2,-2.74 0,-7.86 -4.06,0.34 -2.47,-0.02 -5.23,1.31 -1.69,-4.18 -2.53,-1.34 -5.24,-2.62l4.15 -5.04c-4.29,0.74 -4.02,1.47 -8.09,2.42 5.29,-12.78 2.65,-2 5.25,-9.17 -7.53,0.63 -5.57,4.61 -13.1,5.24 3.42,-5.11 0.77,-1.92 3.06,-7.41 1.38,-3.31 3.28,-6.75 4.79,-9.62 -7.26,-2.41 2.72,0.87 -3.93,-3.93 -2.43,5.07 -0.29,6.19 -6.54,7.86 2.45,-3.66 2.07,-3.99 3.93,-7.86 -3.72,-5.55 -3.93,-1.46 -3.93,-10.47 -5.17,0 -5.32,-0.42 -9.17,-1.31 2.53,-3.77 3.27,-3.19 5.92,-5.87l7.18 -12.47c-9.41,2.19 -3.57,7.07 -13.1,7.86 1.29,-1.93 2.39,-3.37 4.05,-5.11 0.19,-0.2 0.47,-0.46 0.67,-0.66l4.45 -4.71c-8.3,-3 0.21,-7.65 -2.67,-10.65 -1.53,-1.6 0.15,-0.36 -1.81,-0.29l-2.2 0.48c-2.93,0.13 -1.89,-1.2 -7.73,-1.33 13.06,-19.5 -1.95,-10.04 -5.42,-16.08 -1.66,-2.88 0.46,0.27 -1.13,-3.56 -3.13,1.5 -2.44,1.63 -7.45,1.18 -2.41,-0.21 -1.33,-0.17 -2.58,-0.55l-2.68 -1.13c-3.79,-0.83 -28.01,7.97 -33.75,10.36 -0.93,0.39 -1.77,0.79 -2.77,1.15l-23.19 9.56c-6.68,2.66 -6.19,5.78 -10.34,8.07 -5.53,3.04 -2.35,0.44 -6.27,0.95 -4.2,0.53 -2.76,1.27 -5.79,2.18 -2.41,0.72 -2.87,-0.07 -7.33,0.97 -0.24,-0.14 -0.73,-0.39 -0.84,-0.13l-2.78 -0.55c-1.6,-1.23 -1.17,0.82 -0.31,-3.24 -14.49,6.95 -2.89,4.1 -20.84,9.36 -16.26,4.78 -3.12,-1.87 -18.69,8.72 -2.69,1.82 -4.23,2.77 -7.09,4.71 -8.38,5.66 -11.8,5.73 -15.87,9.01 -9.99,8.03 -5.05,3.63 -14.47,9.11l-31.56 16.89c-7.59,3.9 -7.53,3.42 -15.18,9.71 -2.29,1.88 0.37,0.08 -2.85,2.38 -12.58,8.94 -19.81,10.02 -36.78,30.02l-7.4 10.94c-8.93,14.15 -7.56,10.26 -22.19,17.12 -15.09,7.08 -7.08,1.21 -15.98,6.23 -7.85,4.42 -6.47,1.87 -11.21,3.37 -4.26,1.35 -7.47,5.2 -13.01,6.49 2.54,-3.81 2.65,-1.76 3.93,-6.55 -10.22,0.85 -8.02,12.7 -20.96,15.71l7.99 -9.03c3.26,-3.35 6.95,-5 6.6,-8.01l-1.49 -3.91c1.06,-4.58 1.99,-6.84 3.93,-10.48 -5.88,0.49 -5.13,2.94 -9.84,4.43 -5.85,1.86 -1.11,-2.4 -9.81,3.43 1.02,-4.39 2.62,-5.14 6.02,-9.7 3.32,-4.45 5.31,-4.5 5.77,-9.94 -5.97,-2.47 -9.95,1.49 -17.03,5.24 1.35,-6.38 2.46,-2.68 -1.31,-3.93 -3.09,-3.71 -2.6,-0.37 -8.94,2.81 -0.01,0.01 -3.24,1.35 -3.77,1.51 -19.75,6.01 -1.9,-3.2 -26.58,10.08 -8.55,4.59 -4.17,3.92 -12.97,6.68 -3.96,1.26 -2.29,0.35 -6.2,2.96 -13.24,8.87 -20.58,11.17 -31.01,18.76l-12.69 6.97c-1.03,-2.09 -1.34,2.4 0,-3.94 -6.26,1.47 -10.92,7.25 -17.02,10.48 1.04,-3.87 0.53,-2.12 2.62,-5.23 -7.42,1.72 -8.4,4.74 -12.89,9.37 -3.92,4.07 -8.61,5.48 -13.13,9.13 -4.53,3.67 -6.57,6.93 -11.14,11.13l-5.13 5.35c-3.13,3.26 -3.68,2.49 -4.86,6.92 3.97,1.32 2.51,-0.6 1.01,2.26 -0.01,0.04 -3.75,3.8 -3.9,3.95 -3,2.86 -5.43,4.97 -7.59,8.2 6.08,-1.63 1.16,-2.06 7.86,-2.62 -1.2,4.49 -3.8,7.12 -6.87,10.16 -3.94,3.91 -4.49,5.29 -7.76,9.49 1.04,2.37 0.39,0.94 2,3.56 2.18,3.5 0.05,-1.69 2,3.04l-6.18 7.79c-1.12,-3.68 0.15,-1.35 -1.5,-3.54l-4.72 2.89c-4.34,4.13 -5.8,6.05 -13.9,8.49 0.51,-0.92 1.26,-2.28 1.37,-2.51 0.09,-0.2 0.23,-0.58 0.31,-0.78 1.55,-3.68 3.12,-5.98 10.4,-8.54 -1.39,-1.47 2.22,-1.72 -2.65,-0.94 -2.38,1.24 -5.04,2.31 -7.83,3.66 -4.22,2.06 -4.16,3.48 -9.2,3.9 4.15,-6.2 7.95,-6.05 11.78,-11.79l-11.14 4.56c-2.36,0.84 -3.45,1.27 -5.63,2.24 -3.34,1.5 -1.46,1.29 -5.49,2.37 2.02,-5.59 7.39,-7.39 11.79,-15.71 -8.3,0.18 -2.7,0.89 -9.17,2.62 1.51,-6.29 0.9,-2.04 0,-3.93 -10.83,5.2 -0.5,1.81 -11.4,6.93 -2.49,1.16 -10.86,6.89 -10.8,9.35 0.07,3.13 2.01,1.33 -0.69,4.07 -2.87,2.92 -2.65,0.07 -5.92,4.53 6.73,0.15 3.76,-1.19 6.55,2.62 -3.61,4.92 -4.77,1.18 -6.55,7.86l3.93 0c-7.48,10.2 -0.3,4.09 -5.14,11.79 -2.01,3.2 -2.57,2.84 -5.61,4.96 -4.42,3.1 -2.45,0.77 -4.97,5.51l3.94 0c-2.43,2.11 -4.45,4.13 -6.56,6.56 -1.91,0.79 -7.87,3.36 -9.84,4.57 -3.6,2.21 -4.77,4.1 -8.49,5.88l-1.13 0.02c-1.32,3.57 0.93,1.51 -2.8,2.62 -3.13,2.72 -6.2,4.17 -6.59,7.31 -0.03,0.23 0.13,0.88 0.1,1.12 -0.64,4.93 -7.86,5.27 -11.84,11.22 5.57,-1.31 5.76,-3.34 9.16,1.3 -7.06,1.88 -14.65,10.22 -18.34,15.72 4.86,-1.29 1.7,-1.33 6.55,-2.62l-3.93 5.24c1.72,2.95 -0.9,5.45 -2.91,7.51 -3.22,3.32 -4.46,3.74 -4.95,9.51 4.03,-1.93 7.77,-3.1 11.79,-5.24 -2.6,11.16 -10.22,10.92 -10.48,22.27l2.62 0c-1.69,6.35 -2.23,1.51 -3.93,7.86 1.77,-0.99 1.45,-0.72 3.93,-1.31 -0.42,5.09 -1.17,3.41 -1.31,9.17 -0.18,0.26 -0.39,0.39 -0.46,0.84l-7.64 13.31c-5.68,8.83 -8.54,10.1 -8.92,14.66 6.3,-2.28 -1.06,-0.34 5.24,-2.62 1.53,3.79 4.09,1.47 2.62,5.23l2.62 0c-2.25,3.36 -2.19,2.12 -4.17,6.32 -1.27,2.7 -2.05,4.18 -2.38,8.1 6.39,-3.39 6.7,-5.79 13.09,-9.17 1.91,5.74 0.5,-0.65 7.87,-2.63 -1.96,7.33 -10.84,13.54 -12.4,18.07 -1,2.9 -1.8,3.28 1.24,4.94 5.55,3.01 2.54,-1.13 9.54,-4.96l5.55 -2.32c2.44,10.52 -1.81,2.01 -2.63,11.78 2.99,0.69 3.02,1.01 6.56,1.31 -1.74,7.44 -4.74,5.37 -4.98,10.62 -0.43,9.79 5.9,-2.13 -1.58,9.02 4.45,-0.36 4.8,-0.99 7.86,-2.62 0.1,0.2 0.18,0.34 0.21,0.62 0.32,4.01 4.53,1.94 -1.98,9.31 -3.88,4.39 -4.83,3.64 -10.7,9.04 -6.42,5.88 5.26,-4.52 -1.38,1.24 -0.21,0.18 -0.53,0.39 -0.74,0.57 -4.74,4.16 -3.03,-1.08 -3.75,5.42 7.28,-1.7 7.4,-5.86 15.73,-6.55 -1.18,3.24 -0.57,2.39 -4.37,4.81 -2.45,1.57 -4.6,2.39 -7.43,3.05 0.11,0.29 0.36,0.42 0.4,0.83l-0.83 7.7c-2.78,3.29 -2.43,1.88 -3.5,5.88l5.24 0 1.31 0c10.1,0.88 -4.38,4.46 9.18,1.3l0 2.62c-4.68,1.25 -2.28,0.75 -5.69,3.5 -2.3,1.86 -3.91,2.9 -6.11,4.36 1.04,3.87 0.54,2.13 2.62,5.25 1.39,0.02 5.04,0.43 5.46,0.43 1.6,0.01 1.73,-0.16 5.03,-0.43 0.74,2.09 0.85,-0.95 -0.43,2.15l-0.88 1.78c6.09,-2.94 3.8,-0.68 2.61,2.61 5.05,-0.42 12.94,-3.2 19.45,-1.07 5.98,1.95 -2.13,8.52 0.2,14.17 4.53,-3.32 2.09,-4.93 6.54,-6.55 -1.24,5.35 -0.74,0.18 -1.76,4.89 -1.38,6.26 2.03,2.39 1,8.8 -0.76,4.68 -1.24,-1.45 -1.85,5.95 2.98,-0.69 3.01,-1.01 6.54,-1.31l-3.57 3.9c-1.33,2.26 -0.14,3.31 -1.08,7.08 -1.01,4.02 -0.58,-0.17 -1.89,4.74 3.41,4.67 1.37,0.93 4.34,3.52 1.79,1.57 2.36,2.61 3.51,4.34l-2.11 1.84c-0.19,0.17 -0.54,0.43 -0.73,0.61 -6.79,6.11 -1.83,4.8 -3.7,9.34 6.11,0.51 6.41,0.75 7.71,3.98l1.45 4.95c7.2,-0.05 10.95,2.04 15.26,5.47 -0.85,4.2 -1.27,4.02 -4.78,5.93 -0.92,4.86 -1.41,4.09 -2.92,8.48l-0.23 2.87c3.9,-1.56 1.76,0.21 4.11,-2.87 2.23,-3.01 0.65,-0.13 1.66,-3.93l2.62 0c-0.51,6.11 1.11,2.01 -2.09,5.24 -2.32,6 -1.25,1.95 -0.1,6.13l1.17 9.18c6.01,-1.56 3.25,-3.81 9.82,0.41 -3.22,8 -5.27,7.65 -7.31,10.54 -0.16,0.22 -0.37,0.54 -0.52,0.78 -9.81,16.47 2.01,44.87 9.91,57.68 7.1,0.55 10.15,-0.46 16.76,0.07l60.39 0.05c-3.76,-3.42 -8.31,-4.02 -14.13,-6.83 -37.03,-17.86 -54.96,-46.44 -59.18,-90.06 -2.53,-26.06 -0.93,-58.17 -0.92,-84.86 0,-28.38 -0.11,-56.79 -0.01,-85.14 0.2,-60.3 0.18,-98.44 41.1,-129.76 32.91,-25.18 94.07,-27.67 146.58,-24.56l0.52 71.95c-35.48,0.49 -76.2,-5.35 -85.37,28.72 -3.53,13.12 -1.46,137.88 -1.46,168.91 0,15.54 -1.64,43.36 0.28,57.46 5.14,37.72 59.91,27.11 85.51,29.75 3.18,9.61 -0.27,47.8 0.78,59.63 0.54,6.02 0.78,5.56 15.56,4.74 2.05,-12.93 0.52,-357.82 0.52,-388.64 0,-5.49 -1.51,-28.79 0.96,-31.48 3.69,-4.01 24.6,-1.18 31.38,-1.18 19.24,0 46.74,-1.61 64.97,0.33 1.95,12.75 0.5,37.89 0.5,51.98 0,57.65 -1.63,361.85 0.95,368.52l14.2 0.57c1.29,-6.87 0.63,-37.49 0.59,-48.22l-0.12 -11.96c0.45,-4.14 -0.3,-2.35 1.31,-3.81 0.64,-0.58 50.96,-0.78 61.35,-4.19 19.2,-6.3 25.1,-17.27 25.1,-40.28l-0.01 -196.51c-0.52,-50.36 -43.35,-43.01 -87.61,-44.39 -0.07,-15.73 -0.02,-31.49 -0.02,-47.23 0,-29.5 -6.07,-24.82 22.25,-24.81 31.62,0 58.43,-0.96 87.27,6.99 49.41,13.62 78.8,50.42 78.72,110.78 -0.08,62.88 -0.01,125.77 0.01,188.66 0.04,96.98 -61.65,105.41 -74.02,114.7l104.43 0.38c4.36,-8.52 10.48,-39.84 13.64,-51.78 4.38,-16.55 8.89,-35.93 13.51,-53.29 9.61,-36.09 17.67,-70.47 26.93,-105.29 5.86,-21.99 51.53,-207.02 54.21,-210.57l125.93 -0.59c2.68,4.73 51.24,199.5 54.06,210.72 2.89,11.49 50.96,205.46 53.99,210.5l30.79 0.27c2.58,-11.13 0.77,-183.88 0.77,-210.7 0,-37.87 -1.76,-215.51 1.56,-209.82l4.42 -1.05c1.93,-0.18 5.78,0.01 7.9,0.03l74.78 -0.08c11.31,-0.21 8.97,-2.64 8.96,21.02 0,30.34 -1.26,344.35 0.43,358.64l20.25 -23.73c6.66,-8.97 9.13,-21.61 16.14,-29.74 6.64,-7.7 30.86,-44.81 39.28,-44.52 6.69,0.24 3.28,-0.37 3.44,2.11l6.51 -2.76c-1.54,5.11 1.27,1.25 -2.13,4.73 -2.42,2.48 -1.43,0.75 -4.04,1.46 -1.86,3.42 -6.18,7 -10.74,9.75 2.86,2 3.18,0.28 6.92,1.59 -2.93,7.74 -10.48,8.64 -13.22,16.92 3.91,-1.94 5.87,-4.52 9.6,-7.03 3.07,-4.71 2.78,-2.16 6.02,-5.93 0.41,-0.48 1.49,-2.25 2.28,-3.05 1.96,-1.97 1.2,-1.18 3.32,-2.12 -1.56,3.64 -2.38,4.32 -5.07,6.91l-5.68 5.18c-11.96,9.69 -8.38,8.73 -9.93,13.42 -1.95,5.89 -6.51,7.83 -8.1,14.65 4.08,-1.69 11.79,-5.53 13.57,-7.88 -1.23,8.48 -11.95,18.07 -12.14,26.35 3.59,-1.57 2.87,-1.62 6.13,-3.52 -2.19,4.46 -3.6,4.19 -5.47,9.64 4.67,-2.56 3.21,-2.43 7.05,-6.98 2.21,-2.61 3.85,-3.46 6.19,-6.83 1.16,2.1 0.78,-0.78 0.33,2.09 -0.07,0.47 -1.05,3.11 -1.29,3.87l4.33 -1.97c-5.07,12.16 -28.81,40.48 -30.76,52.35 5.26,-2.62 7.02,-10.17 10.86,-15.3 3.92,-5.24 8.53,-8.91 12.58,-12.8 -2.37,6.08 -6.04,7.04 -6.81,13.12l2.5 0.7c-4.48,3.52 -3.67,5.08 -7.81,10.17 0.04,0.19 0.09,0.5 0.13,0.56l1.88 2.37c-0.03,1.96 0.42,1.38 -1.7,1.38 -2.36,6.42 -4.72,6.95 -5.15,15.39l8.23 -8.91c1.73,-4.03 -0.17,-2.58 2.72,-3.69 5.41,-2.09 1.2,-0.87 3.25,1.21l6.48 -6.46c-0.86,6.89 -8.59,16.04 -11.49,24.66 1.94,2.36 -1,0.43 1.87,1.28 1.4,-2.19 0.22,-1.41 2.66,-3.21 1.97,-1.45 1.18,-0.77 4.29,-1.79 4.08,-2.24 4.43,-3.74 7.37,-5.46 1.62,-2.65 -1.53,-1.73 1.98,-2.29 1.48,2.53 -1.68,2.36 3.46,0.81l0.15 4.27c3.31,-2.4 1.69,-1.82 4.06,-4.56l11.54 -8.11c4.49,-2.26 1.9,-0.18 5.98,-3.59l2.31 -2.79c0.24,-0.21 0.6,-0.39 0.84,-0.58 6.12,-5.11 0.35,-1.79 7.32,-7.21 2.52,1.75 2.9,-3.47 1.76,3.05 5.45,-3.55 22.26,-20.03 33.26,-23.39 -3.02,7.73 -5,10.42 -8.39,17.08 3.15,1.93 -1.86,-1.07 2.26,1.01l2.48 1.38c-3.1,2.32 -2.14,1.13 -4.34,5.45 4.28,-1.92 7.97,-5.55 11.67,-8.62 -0.42,7.81 -1.26,1.41 0.6,8.71 -4.43,3.35 -2.87,2.46 -5.74,7.14 -1.34,2.17 -14.56,14.54 -17.44,22.35 5.87,-1.66 4.79,-3.64 8.69,-7.55 1.99,-1.99 6.61,-4.96 10.14,-6.37 -1.33,3.46 -7.46,9.19 -10.67,12.55 -3.7,3.86 -3.37,0.13 -2.39,3.88 0.33,-0.05 1.46,-1.04 3.12,0.46 2.44,2.2 0.31,2.32 0.08,2.74 -2.86,3.96 -3.54,4.57 -5.48,10.04 5.63,-0.64 5.86,-2.48 8.91,-4.78l1.38 -2.52c0.4,0.12 0.81,0.25 2.14,0.26 0.28,0.01 2.31,-0.24 2.98,-0.29l0.14 2.08c5.21,0.38 1.5,-0.14 2.63,1.66l-11.11 14.06c0.74,0.57 1.11,0.64 1.23,1.1 1.21,4.63 9.6,-1.27 12.48,-2.01 5.88,-1.49 -1.23,-0.26 5.87,0.68 -1.34,2.77 -1.26,2.59 -0.54,4.22 6.26,-5.44 13.83,-6.51 20.49,-8.4l5.97 -7.11c0.84,-1.06 0.74,-0.98 1.3,-1.77 5.53,0.67 2.15,-1.02 5.43,1.65 13.97,-7.13 21.65,-14.24 33.73,-23.4 13.3,-10.09 27.99,-26.07 37.56,-34.43 4.35,-3.79 14.56,-5.94 29.03,-14.21 3.3,-1.89 5.83,-3.11 9.42,-5.01 3.76,-2 5.38,-3.92 9.41,-4.97 7.58,-1.96 19.45,-2.67 27.53,-3.23 -3.56,7.03 -6.67,7.53 -8.97,14.28 4.9,-0.01 3.21,-1.48 8.22,-3.21 -3.24,3.66 -6.83,6.99 -9.56,11.08 5.43,-1.21 12.68,-10.84 18.84,-13.42l-4.11 6.63 3.43 0.18c0.11,0.03 0.5,0.08 0.73,0.2l-41.12 44.27c8.06,-3.2 8.23,-6.64 14.61,-11.8 2.74,-2.21 13.38,-10.1 16.89,-10.54 -2.23,1.33 -8.98,10.45 -17.94,16.49 2.29,1.63 5.63,-1.79 1.2,4.23 -0.13,0.18 -0.47,0.49 -0.58,0.69 -1.43,2.5 1.26,3.04 -2.72,6.69 -5.17,0.52 -3.92,1.14 -6.18,4.5 -2.18,3.24 -3.15,4.04 -4.9,7.72 6.33,-1.49 4.57,-1.98 9.26,-4.61 2.5,-1.41 0.52,-0.62 3.5,-1.54 1.24,-4.39 -0.79,-1.91 2.53,-3.5 2.18,-1.61 -0.01,-0.55 3.09,-1.84 1.46,-0.61 1.36,-0.21 2.97,-0.52 1.01,1.68 0,-0.3 0.87,1.75 3.52,-0.68 0.11,-0.02 2.88,-0.8 2.97,-0.84 -1.22,-0.22 3.66,-1.03 -5.57,7.74 -18.69,16.13 -21.59,23.48 2.19,1.56 0.51,0.72 4.85,-0.3l0.18 -3.38c6.9,1.21 2.52,-0.01 4.44,2.46 5.88,-3.65 8.21,-1.23 13.39,-8.14 3.49,2.29 0.35,-1.25 1.78,2l5.13 -1.76 -1.73 5.65c6.08,-3.63 11.38,-7.91 18.41,-11.39 2.89,-1.42 8.02,-3.29 11.06,-4.68 5.6,-2.54 3.37,0.86 8.44,-4 -3.83,-4.18 1.87,4.42 -1.99,-3.43l14.44 -6.15c6.53,-2.47 35.81,-26.23 43.87,-32.97l26.82 -20.55 2.19 -1.1c2.4,-2.06 -2.57,-0.04 3.04,-1.98l13.83 -11.7c0.2,-0.18 0.5,-0.43 0.7,-0.61 1.18,-1.01 1.56,-1.35 2.81,-2.43l9.5 -7.52c0.34,-0.21 1.33,-0.76 1.65,-0.97 0.24,-0.16 0.57,-0.35 0.8,-0.52l57.73 -47.04c0.2,-0.18 0.5,-0.43 0.7,-0.61l7.89 -9.14c-4.98,1.34 -3.04,1.75 -7.5,4.3 -0.24,0.15 -0.6,0.31 -0.85,0.45l-17.73 11.08c-6.75,5.57 -4.4,4.38 -13.21,6.44 0.6,-7.19 3.19,-5.42 8.11,-9.17 1.81,-4.3 -0.29,-1.68 3.68,-4.17 4.45,-7.51 1.69,-5.22 2.59,-8.75 0.59,-2.3 1.03,-1.67 2.63,-2.8 1.86,-3.75 1.89,-4.01 6.57,-5.37 3.16,-2.51 5.6,-2.64 10.12,-4.14 3.74,-1.24 7.66,-2.84 10.83,-3.58l0 -3.93c-6.13,-0.51 -6.52,-1.43 -13.27,-0.42 -5.55,0.83 -3.07,1.73 -11.62,1.73 -0.53,-6.44 -2.73,-3.33 -1.21,-7.97 1.14,-3.5 -0.07,1.27 1.28,-2.61 2.86,-8.21 -2.63,-5.18 -6.61,-2.52 0,-9.86 3.7,-6.94 3.92,-17.03 -6.27,1.51 -2.03,0.9 -3.92,0 2.8,-4.18 2.15,-0.91 2.61,-6.54l-7.85 6.54c0.92,-4.38 0.18,-1.75 -0.6,-3.75 -0.93,-2.34 -2.87,0.93 -0.18,-2.3 1.33,-1.6 6.17,-3.85 8.63,-4.42 -0.01,-0.27 -0.3,-3.19 -0.3,-3.21l0.07 -1.71c0.01,-0.16 0.08,-0.54 0.09,-0.69l-0.05 -3.49c0.7,-6.05 4.81,-5.6 5.44,-13.16 -5.85,1.55 -3.64,2.21 -6.74,6.35l-7.67 5.43c3.18,-4.75 7.65,-8.88 10.47,-13.09 -3.39,-0.91 -1.45,0.48 -2.62,-2.62 -1.1,-1.91 1.31,-4.46 1.31,-10.49 -7.38,1.73 -6.91,-0.12 -13.09,1.31 1.14,-4.24 0.52,-1.77 2.75,-5.1l3.8 -5.37 -2.2 -2.72c-1.04,-1.99 -1.29,0.28 -0.42,-3.83 -9.98,6.68 -4.38,2.31 -10.48,5.24 -2.68,-8.08 -1.74,4.76 -2.62,-5.24l-6.39 4.08c-2.54,1.36 -4.11,2.15 -8.01,2.47 2.07,-8.93 6.54,-8.59 -7.87,-5.24 5.99,-12.47 7.7,-11.12 7.87,-18.33l-2.62 0c1.29,-4.86 1.32,-1.7 2.62,-6.55 -7.11,1.89 -6,7.26 -13.1,9.17 4.27,-6.38 2.8,-2.55 2.44,-7.25 -0.24,-2.98 0.4,-2.66 1.95,-5.24l5.07 -6.88c8,-7.92 5.59,-6.11 10.81,-14.07 2.44,-3.72 2.07,-1.24 3.3,-5.86 -6.54,0.72 -1.5,-0.57 -4.49,2.06 -1.67,1.46 -2.26,3.08 -3.33,4.53 -2.35,3.16 -4.88,5.35 -9.2,6.51 1.58,-4.36 8.22,-10.71 11.79,-13.1l-1.31 -2.62c-1.48,-4.07 -3.5,-1.54 2.62,-13.09 -6.86,0.57 -1.43,-0.22 -5.11,1.53 -0.44,0.21 -4.56,2.51 -4.71,2.54l-3.87 -0.21c-2.46,0.5 -2.51,1.25 -4.66,2.69 0.96,-3.55 20.99,-26.05 3.05,-18.15 -5.59,2.47 -4.18,2.31 -8.28,5.05 1.03,-3.87 0.53,-2.13 2.62,-5.24 -3.55,0.83 -2.29,0.95 -4.03,0.47 -4.47,-1.23 5.05,0.73 -2.52,-1.78 -6.66,5.79 -9.25,6.57 -17.44,7.58 -9.25,1.14 -6.71,3.52 -17.92,9.45 1.5,-5.62 3.32,-3.22 3.93,-10.48 -3.99,0.09 -4.78,0.59 -7.86,1.31 0.23,-10.27 5.24,-5.25 5.24,-17.03l-2.62 0c1.41,-5.27 2.75,-1.99 1.31,-5.24 -2.01,-0.71 -2.14,1.41 -7.85,5.24 2.32,-10.98 -5.31,2.52 -0.92,-7.26 0.58,-1.29 4.84,-7.76 5.8,-8.81l5.43 -5.05c0.57,-0.7 1.16,-1.66 1.58,-2.34l5.13 -9.28c-5.89,0.64 -3.74,1.19 -7.66,5.44 -2.2,2.39 -4.62,4.12 -8.06,5.04 1.56,-2.32 3.36,-4.37 5.35,-6.44 0.19,-0.2 0.45,-0.48 0.64,-0.66l2.06 -1.88c1.72,-1.45 1.99,-1.64 3.74,-2.81 -4.25,-8.85 -2.15,-1.18 -3.93,-6.55l4.16 -5.26c1.59,-5.31 1.15,-3.43 -2.77,-2.69l-13.18 0.1c4.46,-1.62 8.78,-8.48 9.17,-13.1l-2.62 0c-2.25,-6.78 3.71,0.95 -8.34,-1.98 -2.54,-0.61 -1.71,-0.64 -4.76,-0.64 1.82,-6.82 4.52,-2.83 4.72,-11.39 0.29,-12.28 -1.55,-0.27 1.83,-14.8 -5.5,0.45 -4.31,1.49 -9.17,2.62 1.55,-6.64 6.04,-11.91 9.64,-17.86l4.77 -7.03c1.87,-3.2 3.51,-5.9 5.24,-9.17 -8.42,0.7 -4.12,6.21 -14.41,13.1 0.44,-5.23 3.13,-9.22 7.86,-10.48 -0.45,-5.34 -0.27,-5.22 -3.93,-6.55 0.92,-1.36 1.6,-1.92 2.2,-2.9 4.11,-6.66 2.06,-8.89 1.73,-12.81 -7.7,2.05 -4.27,6.81 -13.1,9.16 10.34,-15.43 6.52,-4.92 6.67,-16.89 0.07,-5.29 0.74,-2.62 1.19,-7.99 -7.49,1.74 -5.76,4.49 -9.38,5.24l-1.81 -0.2c-5.44,-0.1 -0.51,0.09 -5.83,1.51 2.67,-4 8.39,-8.03 9.53,-11.28 2.31,-6.61 -3.56,-0.99 2.25,-9.68 -11.86,0 -4.82,3.03 -13.09,5.24l0 -2.62c-3.2,-0.85 -1.77,0.59 -2.62,-2.62 7.08,-3.75 4.31,-2.74 8.98,-8.04 1.98,-2.25 8.03,-5.29 15.9,-12.91l2.05 -1.89c0.2,-0.18 0.49,-0.43 0.69,-0.61l5.89 -5.9c1.48,-2.04 1.08,-0.52 1.85,-3.39 -7.91,0.66 -12.24,11.46 -24.89,14.41 2.31,-3.45 5.86,-5.29 9.06,-7.97l2.13 -1.81c0.73,-0.59 1.6,-1.23 2.23,-1.69 4.39,-3.28 7.79,-3.98 2.83,-7.74 -1.46,-1.11 0.25,4.54 -1.83,-1.74 4.66,-0.39 6.92,-2.12 9.16,-10.49l-6.97 2.33c-0.38,0.17 -1.41,0.71 -1.75,0.85 -3.88,1.59 -2.12,1.64 -4.38,0.75l0 -1.31c-4.85,1.13 -3.66,2.17 -9.17,2.62l17.03 -15.71 -3.92 -5.24 -8.02 3.78c-6.48,1.9 -4.1,0.79 -9.02,4.08 0.92,-3.47 -0.1,-1.08 1.31,-3.93l-2.62 0 0 -2.62 -17.99 6.76c-16.95,2.6 -13.69,0.64 -34.12,11.84l-17.87 8.33c-6.16,3.42 -9.7,5.85 -15.61,9.27 -0.33,0.21 -1.32,0.77 -1.66,0.96 -1.11,0.6 -1.28,0.69 -2.6,1.33 -8.58,4.18 -42.38,24.05 -46.35,24.37 2.98,-5.63 -0.36,-2.37 3.93,-3.93l-2.62 -3.92 2.62 -11.79c-1.59,-0.84 -1.37,-0.72 -3.41,-1.53l-3.14 -1.09c0.89,-3.84 3.84,-7.53 2.74,-11.36 -0.05,-0.15 -0.26,-0.49 -0.32,-0.63 -1.67,-4.17 -2.39,0.97 -0.63,-4.47l0.83 -1.87c-4.86,1.29 -1.7,1.32 -6.55,2.62l-1.51 -7.82c3.25,-1.28 0.13,0.39 3.57,-3.22l4.68 -4.5c7.08,-6.97 5.87,-4.9 6.36,-9.35 -4.66,1.08 -4.13,2.38 -7.77,4.02 -1.85,0.83 -1.51,0.63 -4.02,1.22 1.44,-5.38 0.56,-2.51 5.11,-5.58 6.02,-4.07 3.03,-2.19 2.6,-4.11 -1.85,-8.29 3.29,-3.14 4.08,-12.57l-6.55 1.3c-7.58,-2.51 2.13,-0.03 -2.66,-1.93 -2.4,-0.94 -1.83,-0.68 -5.2,-0.68 4.89,-7.32 11.95,-3.82 9.17,-15.73 -6.21,1.45 -5.41,0.25 -10.48,1.31l-0.46 -1.77c-0.04,-0.07 -0.21,-0.39 -0.25,-0.46 -3.28,-4.91 -3.82,-3.39 -8.46,-3 0.95,-4.07 1.68,-3.79 2.62,-7.86l-3.93 0c1.28,-4.79 1.39,-2.75 3.93,-6.55 -4.97,1.16 -8,4.02 -11.79,6.55 3.06,-11.44 1.91,-2.11 0,-7.86l10.81 -11.46c3.71,-3.96 7.6,-9.39 8.84,-14.73 -8.09,2.16 -3.29,7.89 -14.41,10.48 3.29,-6.21 2.96,-5.89 9.17,-9.17 -0.13,-1.59 -0.51,-4.84 -0.55,-4.91 -1.28,-2.44 2.76,-1.11 -3.38,-1.64 2.58,-3.85 2.62,-2.61 2.62,-9.17 -4.13,0.97 -8.96,1.66 -13.1,2.62 1.67,-6.24 5.05,-5.66 5.24,-14.41 -16.8,-1.39 -7.29,-1.13 -11.78,-2.62l0 -2.61c-7.58,2.01 -2.58,3.99 -14.07,1.46 -6.23,-1.37 -8.96,2.95 -23.68,6.63 -0.35,0.09 -0.7,0.17 -1.04,0.26 -0.34,0.1 -0.67,0.21 -1,0.32 -4.32,1.33 -1.94,1.8 -8.67,1.8 -1.42,-5.32 -13.4,-20.42 -17.03,-23.57l-6.06 2c-1.44,0.32 -1.22,-0.04 -3.11,0.75l-15.68 10.37c-4.79,3.23 -8.31,3.74 -12.93,6.72l-30.13 20.95c-2.98,1.64 -4.02,1.82 -6.65,3.83 -5.93,4.53 -17.12,15.41 -23.66,16.94 -0.34,-4 -2.94,-9.99 -4.28,-14.06 -1.8,-5.41 -3.43,-9.93 -4.9,-14.75l-9.16 -30.13c-4.52,0.37 -13.32,4.58 -15.72,7.86l15.72 0c-1.77,6.65 -15.31,10.32 -15.72,10.47 -1.53,-6.61 -8.67,-20.41 -7.86,-23.57l10.97 -13.92c4.42,-4.75 8.08,-10.26 8.68,-17.51l-13.95 10.93c-6.07,3.78 -3.4,0.69 -8.88,2.91 -2.67,1.08 -4.51,3.94 -7.29,5.81 0,-6.22 1.46,-9.47 2.62,-14.42 8.08,3.27 -6.62,-3.79 2.11,1.8 0.17,0.11 0.97,4.2 6.33,-3.88 1.05,-1.58 0.43,0.73 0.86,-1.98l-1.45 -9.03c6.7,-1.79 19.58,-11.1 24.89,-15.71 -12.75,1.06 -19.3,4.98 -27.51,10.47 1.55,-6.62 -1.76,-9.31 1.31,-15.71 -8.07,-0.18 -5.3,-1.51 -5.86,-6.31 -0.19,-1.64 -0.15,-2.31 -1.2,-4.88 -2.27,-5.62 1.18,-2.68 -3.41,-4.53 -5.99,-8.94 0,-5.11 0,-18.34 -6.3,2.28 1.06,0.35 -5.24,2.62 4.09,-7.74 0,-3.83 0,-15.71 -3.12,-1.65 -4.47,-3.03 -7.86,-3.93 0.42,-5.09 1.18,-3.41 1.31,-9.17 -13.75,-9.21 -6.13,-5.3 -9.16,-18.34 -2.29,-1.07 -3.23,1.19 -7.79,-4.04 -4.15,-4.76 1,-1.77 -7.9,-3.88 -9.13,-2.17 -2.64,-4.64 -21.96,3.02 -2.85,1.12 -6,3.18 -9.17,5.24 -0.24,0.15 -0.56,0.36 -0.79,0.52 -0.23,0.16 -0.54,0.38 -0.77,0.54l-7.3 4.49c-5.66,3.11 -10.29,9.69 -16.36,13.75z"/>
    <path class="fil7" d="M796.45 614.2l-10.04 2.37c-5.75,29.81 7.49,9.66 -36.11,47 -19.04,16.31 -22.65,23.57 -29.91,53.97 -2.17,9.11 -7.72,25.76 -7.2,34.44 0.41,6.65 2.9,9.26 2.42,18.42 -1.12,21.49 -9.03,33.93 -5.05,54.89 5.86,30.97 -1.87,21.12 -1.1,35.21l42.88 0.16c1.25,-7.33 0.17,-14.53 0.7,-21.88l4.25 -42.16c1.03,-9.78 2.01,1.4 2.22,-21.85 7.57,9.7 1.35,30.42 5.49,49.74 4.94,23.09 -5.47,35.46 6.85,36.25l128.28 -0.33c1.08,-12.13 -5.74,-45.86 -8.06,-59.33 -3.6,-20.9 -5.61,-40.42 -8.11,-61.39 -2.74,-23.07 -1.74,-43.77 -11.57,-57.85 -5.53,-7.91 -9.7,-12.52 -14.98,-19.19 -7.59,-9.6 8.54,-14.04 2.27,-24.53 -6.56,-2.28 -12.76,9.69 -21.01,11.7 4.34,-8.94 8.88,-3.7 10.67,-13.46 -15.81,0.51 -16.47,-0.53 -24.68,-10.32 -5.83,-6.94 -11.1,-16.8 -9.27,-27.44 5.36,-2.04 9.51,-0.66 16.06,-3.47 3.38,-1.46 0.58,-14.26 -0.08,-14.94 -7.23,-3.35 -12.05,1.66 -18.88,0.62 -0.93,-4.75 0.46,-14.51 3.24,-19.52 4.94,-8.89 27.12,-6.27 29.3,-5.37 1.52,0.63 2.27,1.02 4.5,1.94 4.18,1.71 0.82,-1.28 4.36,2.4 2.08,2.16 5.57,16.23 5.03,19.09 -0.33,0.21 -0.84,0.04 -1.05,0.48 -0.21,0.44 -0.78,0.36 -1.07,0.43 -9.61,2.16 -21.26,-6.64 -16.77,9.46 1.54,5.55 0.22,3.53 4.63,5.95 9.03,4.95 7.48,-2.54 14.61,-2.89 0.8,7.43 -1.86,21.57 1.61,26.68 4.73,-9.08 1.09,-16.37 3.68,-25.06 1.52,-5.07 3.05,-4.33 3.07,-11.26 0,-4.82 -0.86,-8.24 -2.37,-12.05 -2.83,-7.19 -5.32,-13.61 -10.8,-18.02 -17.67,-14.25 -24.05,-10.04 -42.09,-2.93 -20.63,8.14 -16.27,35.47 -16.74,40.8 -0.68,7.72 -3.81,2.68 -2.08,11.12 1.03,5.04 3.5,6.52 2.9,12.12z"/>
    <path class="fil7" d="M1441.96 997.66c4.96,-9.5 9.59,-47.83 13.72,-54.3 3.47,1.53 1.84,-1.1 3.35,5.75l3.85 23.79c-9.04,1.46 -10.83,-2.13 -10.67,9.31l13.22 0.72 3.57 14.73c2.69,0.13 9.27,0.54 11.17,0.01 3.93,-1.1 2.44,-2.43 1.1,-7.66 -1.77,-6.85 -3.31,-12.92 -5.14,-19.98l-8.96 -35.61c-0.89,-2.92 -0.5,-2.25 -2.02,-4.76l-18.2 -0.63c-5.5,14.85 -10.33,41.52 -15.48,59.55 -3.22,11.29 -1.87,10.12 10.49,9.08z"/>
    <path class="fil7" d="M633.9 997.46c14.63,2.07 11.58,0.97 16.73,-22.32 1.21,-5.47 2.46,-10.86 3.69,-16.02 1.37,-5.77 1.6,-12.29 5.06,-15.82 3.18,4.35 6.45,25.62 6.15,29.9 -9.69,0.47 -10.07,-1.39 -10.17,9.32l12.9 0.24c2.71,11.97 0.93,18.68 16.09,14.55 1.84,-3.92 -1.45,-12.18 -2.47,-16.23l-13.57 -51.99c-22.6,-0.26 -18.12,-5.76 -25.49,26.41 -1.82,7.95 -10.89,36.33 -8.92,41.96z"/>
    <path class="fil7" d="M1393.58 938.28c8.72,0.07 13.24,1.45 13.27,10.17 0.03,9.19 -7,7.47 -12.97,10.57l-0.4 6.55 4.57 1.31c3.56,0.87 8.81,0.81 9.71,9.16 1.22,11.41 -4.49,11.89 -13.74,11.84l0.08 9.92c10.83,0.14 21.76,-0.92 25.94,-8.91 2.25,-4.31 2.68,-11.24 1.26,-16.4 -1.55,-5.65 -5.13,-6.74 -8.73,-9.54 0.52,-0.74 13.71,-9.54 6.53,-25.05 -3.88,-8.38 -14.34,-8.78 -24.81,-8.9l-0.71 9.28z"/>
    <path class="fil7" d="M927.84 962.95c-0.27,0.18 -0.7,0.11 -0.81,0.52l-1.56 1.08c-0.18,0.15 -0.55,0.41 -0.74,0.58 -7.16,6.2 -5.5,24.58 -4.26,32.72l12.8 -0.21c5.82,-14.72 -8.83,-29.07 14.12,-31l-0.27 -8.09c-7.49,-2.2 -12.93,-0.48 -13.12,-10.03 -0.2,-9.46 5.18,-9.51 13.17,-10.76 0.26,-4.61 0.65,-4.44 -0.76,-7.8 -2.18,-2.18 -30.73,-3.58 -26.13,22.27 1.45,8.19 4.61,5.96 7.56,10.72z"/>
    <path class="fil7" d="M173.08 997.78l1.19 -9.98c-15.12,0.08 -14.44,-0.78 -14.4,-15.68 0.07,-19.64 -3.49,-30.03 6.5,-33.11l6.62 -1.8c0.3,-0.1 0.77,-0.25 1.11,-0.46l-0.45 -7.73c-29.33,-0.38 -28.06,7.46 -28.06,33.93 0,25.52 -0.37,35.88 27.49,34.83z"/>
    <path class="fil7" d="M198.05 936.74c4.57,2.9 13.11,0.93 13.73,7.48 0.04,0.51 0.32,0.71 0.37,0.95 1.19,4.86 1.29,35.63 -0.38,38.52 -2.99,5.14 -6.8,4.03 -13.45,4.28l0.33 9.59c27.22,3.14 27.92,-10.05 27.9,-33.3 -0.02,-24.73 1.27,-38.05 -27.69,-34.93l-0.81 7.41z"/>
    <path class="fil7" d="M330.37 929.82c-0.15,0.32 -0.29,0.47 -0.32,1.01l-0.53 19.19c-0.12,10.61 -2.45,6.33 -13.2,7.54l-0.04 8.75 12.85 0.76c0.07,4.26 -0.72,28.02 1.41,29.96 0.13,0.11 12.62,6.45 13.22,-6.49 0.71,-14.8 0.46,-57.06 -1.2,-60.72 -3.59,-1.27 -8.8,-1.19 -12.19,0z"/>
    <path class="fil7" d="M725.48 957.02c-6.15,0.28 -4.47,-0.59 -10.71,0.99 -0.31,0.09 -0.78,0.21 -1.13,0.38 -2.05,10.77 2.62,8.61 12.81,8.3 1.13,33.71 -4.1,32.69 13.37,30.83 1.68,-12.51 1.14,-54.33 0.5,-68.37 -9.97,-0.34 -13.53,-2.85 -13.82,6.14 -0.24,6.95 1.18,15.32 -1.02,21.73z"/>
    <path class="fil7" d="M270.49 940.4c0.78,6.27 2.32,41.03 -1.28,46.18 -4.78,6.84 -4.94,-1.09 -5.39,11.68 24.05,1.02 21.99,-15.07 21.99,-35.31 0,-19.05 1.55,-37.32 -21.69,-35.01 -0.44,10.41 -0.49,7.46 6.37,12.46z"/>
    <path class="fil7" d="M258.37 998.13c0.28,-14.68 -3.98,-5.04 -6.31,-14.33l0.2 -41.56c2.62,-8.33 7.46,0.05 5.84,-14.09 -24.9,-3.8 -20.65,26.79 -20.65,34.8 0,19.36 -1.12,36.94 20.92,35.18z"/>
    <path class="fil7" d="M1341.75 998.42c23.17,0.14 21.28,-14.58 21.28,-35.47 -0.01,-20.78 1.95,-35.62 -21.25,-35.3 -0.3,23.63 7.31,-8.15 7.24,35.3 -0.08,44.71 -7.56,12.27 -7.27,35.47z"/>
    <path class="fil7" d="M1335.97 997.85c0.83,-13.88 -3,-4.68 -6.41,-13.5 -1.27,-3.3 -1.58,-37.65 -0.17,-41.7 3.2,-9.22 6.79,1.15 6.7,-14.66 -25.78,-2.77 -20.65,24.45 -20.63,34.96 0.01,9.54 -3.88,39.65 20.51,34.9z"/>
    <path class="fil7" d="M1256.02 997.59c16.19,1.27 13.36,5.58 13.26,-33.33 -0.12,-39.9 3.55,-36.62 -13.5,-34.92 -1.12,7.28 -1.25,62.33 0.24,68.25z"/>
    <path class="fil7" d="M953.77 929.81c-1.99,5.24 -1.55,51.1 -1.06,62.14 0.24,5.48 -0.82,5.26 4.09,6.11 14.14,2.45 9.78,-8.82 9.78,-41.66 0,-14.96 2.66,-25.91 -3.48,-27.38 -2.95,-0.7 -7.65,0.19 -9.33,0.79z"/>
    <path class="fil7" d="M1118.21 929.23l-0.77 62.74c0.35,6.03 -1.11,5.23 4.35,6.12 2.53,0.42 7.4,0.11 8.82,-1.33 1.97,-2 1.53,-52.98 1.24,-61.46 -0.32,-8.89 -4,-6.65 -13.64,-6.07z"/>
    <path class="fil7" d="M872.32 997.53c16.23,1.91 12.99,3.41 12.99,-33.27 0,-40.82 3.38,-35.95 -13.31,-35.06 -1.1,7.68 -1.32,62.53 0.32,68.33z"/>
    <path class="fil7" d="M707.06 997.54c0.59,-7.41 2.17,-65.05 -0.36,-67.55 -1.02,-1 -4.25,-1.38 -6.74,-1.27 -7.28,0.32 -6.08,-0.62 -6.07,18.5 0.06,53.31 -5.19,51.95 13.17,50.32z"/>
    <path class="fil7" d="M193.06 981.28l-0.36 -51.43c-18.19,-6.67 -13.61,6.01 -13.61,42.26 0,9.27 -1.84,23.99 2.65,25.62 0.34,0.12 9.35,2.29 11.1,-2.3 0.46,-1.21 0.22,-11.98 0.22,-14.15z"/>
    <path class="fil7" d="M817.26 997.59l11.56 0.16c2.16,-6.41 1.55,-59.65 0.56,-68.73l-12.6 -0.01c-1.28,8.26 -1.67,62.52 0.48,68.58z"/>
    <path class="fil7" d="M558.48 929.17c-4.63,6.64 -7.66,37.56 -13.04,47.23 -2.69,-1.59 -2.2,-0.02 -4.65,-10.09 -2.13,-8.72 -6.88,-32.33 -9.76,-37.27 -4.36,5.93 -1.49,31.32 0.89,38.27 1.78,5.21 7.43,30.21 12.29,30.53 8.32,0.53 21.82,-60.19 14.27,-68.67z"/>
    <path class="fil7" d="M1375.29 997.46l11.47 0.27c1.95,-5.92 1.6,-60.45 0.48,-68.62l-12.34 -0.04c-1.56,7.06 -1.64,63.02 0.39,68.39z"/>
    <path class="fil7" d="M1006.72 947.22c0,5.23 -1.14,46.61 1.44,49.3 2.05,2.13 9.89,2.95 11.81,-0.27l0.7 -62.26c-0.35,-4.72 0.5,-4.14 -3.8,-5.07 -13.48,-2.91 -10.15,8.29 -10.15,18.3z"/>
    <path class="fil7" d="M488.89 929.91c-3.29,8.19 -0.97,35 -1.03,46.13 -0.03,5.25 -2.02,19.15 2.04,21.44 0.29,0.15 10.15,3.94 11.1,-4.24 0.55,-4.79 0.55,-59.43 -1.2,-63.52 -3.79,-1.17 -7.47,-1.12 -10.91,0.19z"/>
    <path class="fil7" d="M309.33 997.91l0.71 -68.91c-16.7,-0.04 -13.38,-6.67 -13.38,33.95 0,41.93 -3.3,34.49 12.67,34.96z"/>
    <path class="fil7" d="M1063.38 997.66l11.66 0.06 0.15 -66.93c-0.06,-0.26 -0.17,-0.71 -0.32,-1.04l-11.89 -0.83c-1.59,7.9 -1.88,62.64 0.4,68.74z"/>
    <polygon class="fil7" points="1200.3,997.86 1213.02,997.85 1213.43,929.02 1200.55,929.01 "/>
    <path class="fil7" d="M576.53 997.9c1.52,-6.58 1.49,-61.67 0.17,-68.88l-11.18 0.1c-1.57,7.39 -0.86,47.19 -0.92,60.15 -0.05,11.25 0.9,8.49 11.93,8.63z"/>
    <path class="fil7" d="M451.09 997.9c16.33,-0.18 12.38,5.8 12.83,-33.64 0.49,-42.29 2.53,-34.8 -12.47,-35.38l-0.36 69.02z"/>
    <path class="fil7" d="M513.16 997.78l10.88 0.09 0.51 -68.92 -11.6 0.14c-1.74,6.63 -1.81,63.02 0.21,68.69z"/>
    <path class="fil7" d="M1159.33 929.25c-0.15,0.62 -0.38,0.76 -0.45,1.26l-1.23 2.89c-0.45,1.23 -0.87,2.8 -1.23,4.08 -0.84,3.05 -1.47,5.44 -2.2,8.18 -2.64,9.76 -14.05,47.66 -13.4,51.86l11.66 0.28c2.49,-4.24 16.43,-62.96 16.18,-68.93l-9.33 0.38z"/>
    <path class="fil7" d="M1303.63 997.3c2.06,-4.24 -14,-33.54 -16.41,-38.79l-6.38 -12c-0.13,-0.16 -0.43,-0.48 -0.67,-0.7 -3.9,3.72 -6.49,8.3 -5.97,15.9 0.2,2.85 0.03,2.3 1.05,4.56l13.4 26.23c2.82,6.4 6.99,7.13 14.98,4.8z"/>
    <path class="fil7" d="M1219.32 968.62c8,1.19 13.16,0.24 13.12,10.05 -0.06,10.87 -6.48,7.32 -12.59,10.47l0.15 8.48c15.03,1.64 27.32,-4.11 26.79,-18.96 -0.56,-15.2 -11.15,-21.02 -26.5,-19.12l-0.97 9.08z"/>
    <path class="fil7" d="M1091.86 987.05c-7.01,1.84 -13.99,-1.43 -9.45,10.21 36.3,5.92 35.07,-43.61 -0.61,-37.53 -1.43,13.31 1.07,6.8 8.99,10.53 6.85,3.21 3.25,12.97 1.07,16.79z"/>
    <path class="fil7" d="M835.59 937.42c7.08,2.06 16.33,2 12.84,14.12 -3.77,13.1 -13.97,-2.75 -12.9,14.77 17.78,3.85 28.99,-5.25 26.87,-22.96 -0.94,-7.9 -5.22,-11.47 -11.88,-13.1 -10.74,-2.62 -15.8,-4.09 -14.93,7.17z"/>
    <path class="fil7" d="M1026.01 938.05c20.97,1 12.67,16.85 9.42,18.48 -7.91,3.98 -9.3,-3.7 -9.38,10.31 15.51,0.4 27.06,-2.53 27.52,-18.33 0.45,-15.87 -11.29,-21.22 -26.87,-19.12l-0.69 8.66z"/>
    <path class="fil7" d="M1179.77 997.73l11.36 -0.12c1.1,-3.1 0.79,-1.59 -0.46,-6.52l-15.12 -55.75c-12.4,13.11 3.04,60.51 4.22,62.39z"/>
    <path class="fil7" d="M363.92 982.15l12.14 0.31c2.46,-7.92 12.22,-47.85 11.76,-53.23l-9.47 -0.07c-2.96,6.42 -13.99,47.17 -14.43,52.99z"/>
    <path class="fil7" d="M757.08 982.73l12.09 -0.34c2.43,-7.25 12.18,-47.7 11.73,-53.4l-9.63 0.21c-2.9,9.61 -13.81,45.59 -14.19,53.53z"/>
    <path class="fil7" d="M807.47 997.29l1.24 -4.25c0.21,-1.94 0.02,-3.16 -0.08,-5.03l-60.39 -0.28c-0.46,12.54 -4.69,10.18 25.09,10.17 9.83,-0.01 25.94,1.75 34.14,-0.61z"/>
    <path class="fil7" d="M368.64 997.9l34.04 0c13.37,0 13.29,2.87 13.04,-10l-60.85 -0.07c-0.2,12.95 0.66,10.07 13.77,10.07z"/>
    <path class="fil7" d="M787.93 982.33l11.73 0.31c-0.26,-8.35 -9.21,-38.17 -11.81,-47.33 -2.51,2.55 -1.15,0.45 -2.62,4.18 -1.71,4.34 -3.38,13.76 -2.41,19.04 1.3,7.04 3.24,17.84 5.11,23.8z"/>
    <path class="fil7" d="M394.76 982.46l11.91 0.2 -12.02 -47.16c-9.62,8.95 -3.43,34.12 0.11,46.96z"/>
    <path class="fil7" d="M831.9 611.21c-1.29,6.29 10.11,11.17 11.46,0.74 -0.33,-0.17 -0.79,-0.85 -0.98,-0.53 -0.2,0.34 -0.78,-0.36 -1.06,-0.42l-9.42 0.21z"/>
    <path class="fil7" d="M857.15 181.06c-1.08,1.9 -0.64,1.39 -1.31,3.93l5.24 -5.24 -2.62 0 -1.31 1.31z"/>
    <path class="fil7" d="M901.68 153.56c3.94,-1.05 2.87,0.02 3.93,-3.93l-3.93 3.93z"/>
    <path class="fil7" d="M1053.6 30.44c0,-4.34 -2.39,-0.3 -2.62,0l2.62 0z"/>
    <polygon class="fil7" points="16.33,571.34 15.02,571.34 16.11,572.88 "/>
    <polygon class="fil7" points="165.63,359.18 164.32,359.18 165.41,360.71 "/>
    <polygon class="fil7" points="946.2,77.59 944.89,77.59 945.99,79.12 "/>
    <polygon class="fil7" points="736.65,179.75 737.97,179.75 736.87,178.22 "/>
    <polygon class="fil7" points="1633.79,738.99 1632.48,738.99 1633.57,740.52 "/>
    <polygon class="fil7" points="1652.12,630.29 1653.43,630.29 1652.34,628.75 "/>
    <polygon class="fil7" points="1539.49,277.98 1540.8,277.98 1539.71,276.45 "/>
    <polygon class="fil7" points="92.29,408.95 90.98,408.95 92.07,410.47 "/>
    <polygon class="fil7" points="1530.33,343.46 1531.64,343.46 1530.54,341.93 "/>
    <polygon class="fil7" points="1534.25,276.67 1535.56,276.67 1534.47,275.14 "/>
    <polygon class="fil7" points="176.11,344.77 174.8,344.77 175.89,346.3 "/>
    <polygon class="fil7" points="30.73,490.15 29.42,490.15 30.51,491.68 "/>
    <polygon class="fil7" points="224.57,301.56 225.88,301.56 224.79,300.02 "/>
    <polygon class="fil7" points="1548.66,293.69 1549.97,293.69 1548.88,292.16 "/>
    <polygon class="fil7" points="741.9,191.54 743.2,191.54 742.12,190.01 "/>
    <polygon class="fil7" points="836.19,188.92 837.5,188.92 836.41,187.39 "/>
    <polygon class="fil7" points="863.7,177.13 865.01,177.13 863.92,175.6 "/>
    <polygon class="fil7" points="900.36,147.01 899.06,147.01 900.15,148.54 "/>
    <polygon class="fil7" points="30.73,678.75 29.42,678.75 30.51,680.27 "/>
    <polygon class="fil7" points="899.06,156.18 897.74,156.18 897.74,157.49 "/>
    <polygon class="fil7" points="1413.76,353.94 1413.76,352.63 1412.46,353.94 "/>
    <path class="fil7" d="M866.32 175.82l0.39 -0.39c-0.03,0.03 -0.53,0.26 -0.39,0.39z"/>
    <polygon class="fil7" points="902.99,144.39 901.68,145.7 "/>
    <polygon class="fil7" points="863.7,177.13 862.39,178.44 "/>
    <polygon class="fil7" points="901.68,145.7 900.36,147.01 "/>
    <polygon class="fil7" points="901.68,153.56 900.36,154.87 "/>
    <polygon class="fil7" points="900.36,154.87 899.06,156.18 "/>
    <polygon class="fil7" points="862.39,178.44 861.08,179.75 "/>
    <polygon class="fil7" points="836.19,188.92 834.88,190.23 "/>
    <polygon class="fil7" points="224.57,301.56 223.26,302.87 "/>
    <polygon class="fil7" points="1678.32,714.1 1677.01,715.41 "/>
    <polygon class="fil7" points="833.57,191.54 832.26,192.85 "/>
    <polygon class="fil7" points="834.88,190.23 833.57,191.54 "/>
    <polygon class="fil7" points="30.73,661.72 29.42,661.72 "/>
    <polygon class="fil7" points="1539.49,277.98 1536.87,279.29 "/>
    <polygon class="fil7" points="904.29,143.08 902.99,144.39 "/>
    <polygon class="fil7" points="832.26,192.85 830.95,194.15 "/>
   </g>
  </g>
 </g>
</svg>
